# xmcd CD database file
#
# Track frame offsets:
#	150
#	19306
#	37051
#	57545
#	77710
#	95284
#	111810
#	132858
#	154645
#	172206
#	190025
#	203595
#
# Disc length: 3115 seconds
#
# Revision: 1
# Processed by: cddbd v1.4PL0 Copyright (c) Steve Scherf et al.
# Submitted via: Feurio! 1.64 - http://www.feurio.com
#
DISCID=9e0c290c
DTITLE=Various Artist - No Angel
DYEAR=1900
DGENRE=
TTITLE0=Sconosciuto
TTITLE1=Sconosciuto
TTITLE2=Sconosciuto
TTITLE3=Sconosciuto
TTITLE4=Sconosciuto
TTITLE5=Sconosciuto
TTITLE6=Sconosciuto
TTITLE7=Sconosciuto
TTITLE8=Sconosciuto
TTITLE9=Sconosciuto
TTITLE10=Sconosciuto
TTITLE11=Sconosciuto
EXTD=
EXTT0=
EXTT1=
EXTT2=
EXTT3=
EXTT4=
EXTT5=
EXTT6=
EXTT7=
EXTT8=
EXTT9=
EXTT10=
EXTT11=
PLAYORDER=
